<?xml version="1.0" encoding="UTF-8" standalone="no"?>
<!DOCTYPE svg PUBLIC "-//W3C//DTD SVG 1.1//EN"
 "http://www.w3.org/Graphics/SVG/1.1/DTD/svg11.dtd">
<!-- Generated by graphviz version 2.28.0 (20120808.0111)
 -->
<!-- Title: G Pages: 1 -->
<svg width="969pt" height="260pt"
 viewBox="0.00 0.00 969.00 260.00" xmlns="http://www.w3.org/2000/svg" xmlns:xlink="http://www.w3.org/1999/xlink">
<g id="graph1" class="graph" transform="scale(1 1) rotate(0) translate(4 256)">
<title>G</title>
<polygon fill="white" stroke="white" points="-4,5 -4,-256 966,-256 966,5 -4,5"/>
<!-- dentist -->
<g id="node1" class="node"><title>dentist</title>
<ellipse fill="none" stroke="black" cx="36" cy="-234" rx="36.1837" ry="18"/>
<text text-anchor="middle" x="36" y="-228.4" font-family="Times,serif" font-size="14.00">dentist</text>
</g>
<!-- dent -->
<g id="node3" class="node"><title>dent</title>
<ellipse fill="none" stroke="black" cx="36" cy="-162" rx="27.493" ry="18"/>
<text text-anchor="middle" x="36" y="-156.4" font-family="Times,serif" font-size="14.00">dent</text>
</g>
<!-- dentist&#45;&gt;dent -->
<g id="edge2" class="edge"><title>dentist&#45;&gt;dent</title>
<path fill="none" stroke="black" d="M36,-215.697C36,-207.983 36,-198.712 36,-190.112"/>
<polygon fill="black" stroke="black" points="39.5001,-190.104 36,-180.104 32.5001,-190.104 39.5001,-190.104"/>
</g>
<!-- profanity -->
<g id="node4" class="node"><title>profanity</title>
<ellipse fill="none" stroke="black" cx="137" cy="-234" rx="46.1519" ry="18"/>
<text text-anchor="middle" x="137" y="-228.4" font-family="Times,serif" font-size="14.00">profanity</text>
</g>
<!-- profane -->
<g id="node6" class="node"><title>profane</title>
<ellipse fill="none" stroke="black" cx="137" cy="-162" rx="40.2889" ry="18"/>
<text text-anchor="middle" x="137" y="-156.4" font-family="Times,serif" font-size="14.00">profane</text>
</g>
<!-- profanity&#45;&gt;profane -->
<g id="edge4" class="edge"><title>profanity&#45;&gt;profane</title>
<path fill="none" stroke="black" d="M137,-215.697C137,-207.983 137,-198.712 137,-190.112"/>
<polygon fill="black" stroke="black" points="140.5,-190.104 137,-180.104 133.5,-190.104 140.5,-190.104"/>
</g>
<!-- pro -->
<g id="node8" class="node"><title>pro</title>
<ellipse fill="none" stroke="black" cx="86" cy="-90" rx="27" ry="18"/>
<text text-anchor="middle" x="86" y="-84.4" font-family="Times,serif" font-size="14.00">pro</text>
</g>
<!-- profane&#45;&gt;pro -->
<g id="edge6" class="edge"><title>profane&#45;&gt;pro</title>
<path fill="none" stroke="black" d="M125.171,-144.765C118.708,-135.893 110.581,-124.738 103.407,-114.892"/>
<polygon fill="black" stroke="black" points="106.131,-112.687 97.4136,-106.666 100.473,-116.809 106.131,-112.687"/>
</g>
<!-- fane -->
<g id="node10" class="node"><title>fane</title>
<ellipse fill="none" stroke="black" cx="159" cy="-90" rx="27.4789" ry="18"/>
<text text-anchor="middle" x="159" y="-84.4" font-family="Times,serif" font-size="14.00">fane</text>
</g>
<!-- profane&#45;&gt;fane -->
<g id="edge8" class="edge"><title>profane&#45;&gt;fane</title>
<path fill="none" stroke="black" d="M142.326,-144.055C144.839,-136.059 147.896,-126.331 150.703,-117.4"/>
<polygon fill="black" stroke="black" points="154.064,-118.378 153.723,-107.789 147.386,-116.28 154.064,-118.378"/>
</g>
<!-- temple -->
<g id="node12" class="node"><title>temple</title>
<ellipse fill="none" stroke="black" cx="199" cy="-18" rx="36.974" ry="18"/>
<text text-anchor="middle" x="199" y="-12.4" font-family="Times,serif" font-size="14.00">temple</text>
</g>
<!-- fane&#45;&gt;temple -->
<g id="edge10" class="edge"><title>fane&#45;&gt;temple</title>
<path fill="none" stroke="black" d="M168.277,-72.7646C173.055,-64.4043 178.991,-54.0159 184.368,-44.6059"/>
<polygon fill="black" stroke="black" points="187.573,-46.0523 189.495,-35.6334 181.495,-42.5793 187.573,-46.0523"/>
</g>
<!-- vihara -->
<g id="node13" class="node"><title>vihara</title>
<ellipse fill="none" stroke="black" cx="240" cy="-90" rx="35.2475" ry="18"/>
<text text-anchor="middle" x="240" y="-84.4" font-family="Times,serif" font-size="14.00">vihara</text>
</g>
<!-- vihara&#45;&gt;temple -->
<g id="edge12" class="edge"><title>vihara&#45;&gt;temple</title>
<path fill="none" stroke="black" d="M230.284,-72.411C225.382,-64.0421 219.33,-53.7098 213.859,-44.3698"/>
<polygon fill="black" stroke="black" points="216.721,-42.3299 208.647,-35.4699 210.681,-45.8677 216.721,-42.3299"/>
</g>
<!-- vacuo -->
<g id="node15" class="node"><title>vacuo</title>
<ellipse fill="none" stroke="black" cx="265" cy="-234" rx="34.1417" ry="18"/>
<text text-anchor="middle" x="265" y="-228.4" font-family="Times,serif" font-size="14.00">vacuo</text>
</g>
<!-- vacua -->
<g id="node17" class="node"><title>vacua</title>
<ellipse fill="none" stroke="black" cx="357" cy="-162" rx="33.3278" ry="18"/>
<text text-anchor="middle" x="357" y="-156.4" font-family="Times,serif" font-size="14.00">vacua</text>
</g>
<!-- vacuo&#45;&gt;vacua -->
<g id="edge14" class="edge"><title>vacuo&#45;&gt;vacua</title>
<path fill="none" stroke="black" d="M283.618,-218.834C296.96,-208.682 315.136,-194.853 330.06,-183.498"/>
<polygon fill="black" stroke="black" points="332.571,-185.985 338.41,-177.144 328.332,-180.414 332.571,-185.985"/>
</g>
<!-- vacuum -->
<g id="node21" class="node"><title>vacuum</title>
<ellipse fill="none" stroke="black" cx="357" cy="-90" rx="41.4082" ry="18"/>
<text text-anchor="middle" x="357" y="-84.4" font-family="Times,serif" font-size="14.00">vacuum</text>
</g>
<!-- vacua&#45;&gt;vacuum -->
<g id="edge18" class="edge"><title>vacua&#45;&gt;vacuum</title>
<path fill="none" stroke="black" d="M357,-143.697C357,-135.983 357,-126.712 357,-118.112"/>
<polygon fill="black" stroke="black" points="360.5,-118.104 357,-108.104 353.5,-118.104 360.5,-118.104"/>
</g>
<!-- vacuity -->
<g id="node18" class="node"><title>vacuity</title>
<ellipse fill="none" stroke="black" cx="357" cy="-234" rx="39.1908" ry="18"/>
<text text-anchor="middle" x="357" y="-228.4" font-family="Times,serif" font-size="14.00">vacuity</text>
</g>
<!-- vacuity&#45;&gt;vacua -->
<g id="edge16" class="edge"><title>vacuity&#45;&gt;vacua</title>
<path fill="none" stroke="black" d="M357,-215.697C357,-207.983 357,-198.712 357,-190.112"/>
<polygon fill="black" stroke="black" points="360.5,-190.104 357,-180.104 353.5,-190.104 360.5,-190.104"/>
</g>
<!-- vacuate -->
<g id="node22" class="node"><title>vacuate</title>
<ellipse fill="none" stroke="black" cx="455" cy="-234" rx="40.2818" ry="18"/>
<text text-anchor="middle" x="455" y="-228.4" font-family="Times,serif" font-size="14.00">vacuate</text>
</g>
<!-- vacuate&#45;&gt;vacua -->
<g id="edge20" class="edge"><title>vacuate&#45;&gt;vacua</title>
<path fill="none" stroke="black" d="M434.217,-218.155C419.805,-207.861 400.454,-194.038 384.729,-182.806"/>
<polygon fill="black" stroke="black" points="386.592,-179.836 376.42,-176.872 382.523,-185.532 386.592,-179.836"/>
</g>
<!-- surf -->
<g id="node24" class="node"><title>surf</title>
<ellipse fill="none" stroke="black" cx="639" cy="-234" rx="27" ry="18"/>
<text text-anchor="middle" x="639" y="-228.4" font-family="Times,serif" font-size="14.00">surf</text>
</g>
<!-- sur -->
<g id="node26" class="node"><title>sur</title>
<ellipse fill="none" stroke="black" cx="639" cy="-162" rx="27" ry="18"/>
<text text-anchor="middle" x="639" y="-156.4" font-family="Times,serif" font-size="14.00">sur</text>
</g>
<!-- surf&#45;&gt;sur -->
<g id="edge22" class="edge"><title>surf&#45;&gt;sur</title>
<path fill="none" stroke="black" d="M639,-215.697C639,-207.983 639,-198.712 639,-190.112"/>
<polygon fill="black" stroke="black" points="642.5,-190.104 639,-180.104 635.5,-190.104 642.5,-190.104"/>
</g>
<!-- surbase -->
<g id="node27" class="node"><title>surbase</title>
<ellipse fill="none" stroke="black" cx="554" cy="-234" rx="39.4969" ry="18"/>
<text text-anchor="middle" x="554" y="-228.4" font-family="Times,serif" font-size="14.00">surbase</text>
</g>
<!-- surbase&#45;&gt;sur -->
<g id="edge24" class="edge"><title>surbase&#45;&gt;sur</title>
<path fill="none" stroke="black" d="M572.444,-217.811C584.817,-207.622 601.246,-194.092 614.685,-183.024"/>
<polygon fill="black" stroke="black" points="617.109,-185.562 622.603,-176.503 612.659,-180.159 617.109,-185.562"/>
</g>
<!-- base -->
<g id="node30" class="node"><title>base</title>
<ellipse fill="none" stroke="black" cx="554" cy="-162" rx="28.2939" ry="18"/>
<text text-anchor="middle" x="554" y="-156.4" font-family="Times,serif" font-size="14.00">base</text>
</g>
<!-- surbase&#45;&gt;base -->
<g id="edge26" class="edge"><title>surbase&#45;&gt;base</title>
<path fill="none" stroke="black" d="M554,-215.697C554,-207.983 554,-198.712 554,-190.112"/>
<polygon fill="black" stroke="black" points="557.5,-190.104 554,-180.104 550.5,-190.104 557.5,-190.104"/>
</g>
<!-- surface -->
<g id="node31" class="node"><title>surface</title>
<ellipse fill="none" stroke="black" cx="723" cy="-234" rx="38.3713" ry="18"/>
<text text-anchor="middle" x="723" y="-228.4" font-family="Times,serif" font-size="14.00">surface</text>
</g>
<!-- surface&#45;&gt;sur -->
<g id="edge28" class="edge"><title>surface&#45;&gt;sur</title>
<path fill="none" stroke="black" d="M704.773,-217.811C692.546,-207.622 676.31,-194.092 663.029,-183.024"/>
<polygon fill="black" stroke="black" points="665.127,-180.216 655.204,-176.503 660.645,-185.594 665.127,-180.216"/>
</g>
<!-- face -->
<g id="node34" class="node"><title>face</title>
<ellipse fill="none" stroke="black" cx="723" cy="-162" rx="27.1667" ry="18"/>
<text text-anchor="middle" x="723" y="-156.4" font-family="Times,serif" font-size="14.00">face</text>
</g>
<!-- surface&#45;&gt;face -->
<g id="edge30" class="edge"><title>surface&#45;&gt;face</title>
<path fill="none" stroke="black" d="M723,-215.697C723,-207.983 723,-198.712 723,-190.112"/>
<polygon fill="black" stroke="black" points="726.5,-190.104 723,-180.104 719.5,-190.104 726.5,-190.104"/>
</g>
<!-- surgury -->
<g id="node35" class="node"><title>surgury</title>
<ellipse fill="none" stroke="black" cx="820" cy="-234" rx="40.0566" ry="18"/>
<text text-anchor="middle" x="820" y="-228.4" font-family="Times,serif" font-size="14.00">surgury</text>
</g>
<!-- surg -->
<g id="node37" class="node"><title>surg</title>
<ellipse fill="none" stroke="black" cx="870" cy="-162" rx="27.2465" ry="18"/>
<text text-anchor="middle" x="870" y="-156.4" font-family="Times,serif" font-size="14.00">surg</text>
</g>
<!-- surgury&#45;&gt;surg -->
<g id="edge32" class="edge"><title>surgury&#45;&gt;surg</title>
<path fill="none" stroke="black" d="M831.597,-216.765C837.933,-207.893 845.901,-196.738 852.935,-186.892"/>
<polygon fill="black" stroke="black" points="855.846,-188.837 858.81,-178.666 850.15,-184.769 855.846,-188.837"/>
</g>
<!-- surgeon -->
<g id="node38" class="node"><title>surgeon</title>
<ellipse fill="none" stroke="black" cx="920" cy="-234" rx="41.1616" ry="18"/>
<text text-anchor="middle" x="920" y="-228.4" font-family="Times,serif" font-size="14.00">surgeon</text>
</g>
<!-- surgeon&#45;&gt;surg -->
<g id="edge34" class="edge"><title>surgeon&#45;&gt;surg</title>
<path fill="none" stroke="black" d="M908.151,-216.411C901.807,-207.53 893.885,-196.439 886.906,-186.668"/>
<polygon fill="black" stroke="black" points="889.74,-184.614 881.079,-178.511 884.044,-188.683 889.74,-184.614"/>
</g>
</g>
</svg>
